<svg width="189" height="68" viewBox="0 0 189 68" fill="none" xmlns="http://www.w3.org/2000/svg">
<path d="M15.9651 31.7073L22.929 24.9105L29.8965 31.7109L33.9486 27.7559L22.929 17L11.9131 27.7523L15.9651 31.7073Z" fill="white" fill-opacity="0.8"/>
<path d="M13.1037 34.4998L9.05176 30.5449L4.99958 34.5L9.05156 38.455L13.1037 34.4998Z" fill="white" fill-opacity="0.8"/>
<path d="M15.9652 37.2924L22.9291 44.0891L29.8963 37.2891L33.9506 41.2418L33.9487 41.2441L22.9291 51.9997L11.9129 41.2476L11.9072 41.2421L15.9652 37.2924Z" fill="white" fill-opacity="0.8"/>
<path d="M36.8072 38.4571L40.8594 34.502L36.8074 30.547L32.7552 34.5021L36.8072 38.4571Z" fill="white" fill-opacity="0.8"/>
<path d="M27.0393 34.4977H27.041L22.9292 30.4844L19.8905 33.4503H19.8903L19.5413 33.7911L18.8211 34.4941L18.8154 34.4996L18.8211 34.5054L22.9292 38.5152L27.041 34.5018L27.043 34.4996L27.0393 34.4977Z" fill="white" fill-opacity="0.8"/>
<path d="M47.1758 25.4805H55.9888C58.1761 25.4805 59.8301 26.0284 60.9511 27.1242C61.8186 27.9728 62.2522 29.0247 62.2522 30.2794V30.3325C62.2522 30.8627 62.1851 31.3313 62.05 31.7376C61.9152 32.1445 61.7351 32.5108 61.5099 32.8378C61.2853 33.1651 61.0242 33.4524 60.7274 33.6995C60.4303 33.9472 60.1111 34.1595 59.7692 34.3359C60.8687 34.7428 61.7342 35.2948 62.3652 35.9931C62.996 36.6917 63.3118 37.6595 63.3118 38.8965V38.9493C63.3118 39.798 63.1447 40.5402 62.8102 41.1769C62.4757 41.8129 61.9965 42.3434 61.3725 42.7677C60.7486 43.1921 59.9984 43.51 59.1215 43.7223C58.2446 43.9343 57.2729 44.0402 56.2066 44.0402H47.1758V25.4805ZM55.1077 32.9838C56.0316 32.9838 56.7651 32.8296 57.308 32.5199C57.8513 32.2106 58.1229 31.7111 58.1229 31.0219V30.9689C58.1229 30.3505 57.8872 29.8778 57.4165 29.5505C56.9455 29.2234 56.2663 29.0598 55.3793 29.0598H51.2502V32.9838H55.1077V32.9838ZM56.2216 40.4612C57.1452 40.4612 57.8691 40.2981 58.3948 39.9708C58.9198 39.6437 59.1827 39.1354 59.1827 38.4459V38.3931C59.1827 37.7745 58.938 37.2841 58.4491 36.9214C57.96 36.5595 57.1724 36.3782 56.0856 36.3782H51.2502V40.4614H56.2216V40.4612Z" fill="white" fill-opacity="0.8"/>
<path d="M68.5605 25.4805H72.7443V44.0407H68.5605V25.4805Z" fill="white" fill-opacity="0.8"/>
<path d="M79.0811 25.4805H82.938L91.8484 36.9084V25.4805H95.9775V44.0407H92.4191L83.2099 32.2418V44.0407H79.0811V25.4805Z" fill="white" fill-opacity="0.8"/>
<path d="M108.642 25.3477H112.5L120.65 44.0403H116.276L114.537 39.8778H106.496L104.758 44.0403H100.492L108.642 25.3477ZM113.043 36.2714L110.517 30.2528L107.991 36.2714H113.043Z" fill="white" fill-opacity="0.8"/>
<path d="M125.166 25.4805H129.024L137.934 36.9084V25.4805H142.063V44.0407H138.504L129.295 32.2418V44.0407H125.166V25.4805V25.4805Z" fill="white" fill-opacity="0.8"/>
<path d="M157.119 44.3585C155.724 44.3585 154.429 44.1108 153.234 43.6162C152.038 43.1217 151.006 42.4452 150.137 41.5877C149.267 40.7305 148.588 39.7185 148.1 38.5519C147.611 37.3851 147.366 36.1389 147.366 34.8131V34.7603C147.366 33.4345 147.611 32.193 148.1 31.035C148.588 29.8773 149.267 28.8608 150.137 27.9859C151.006 27.111 152.048 26.4213 153.261 25.9176C154.474 25.4139 155.815 25.1621 157.282 25.1621C158.168 25.1621 158.979 25.2332 159.712 25.3741C160.446 25.5159 161.111 25.71 161.709 25.9574C162.307 26.2051 162.859 26.5056 163.367 26.8589C163.873 27.2127 164.344 27.6014 164.779 28.0257L162.117 31.0218C161.374 30.368 160.618 29.8549 159.848 29.4839C159.078 29.113 158.214 28.9272 157.254 28.9272C156.457 28.9272 155.719 29.0776 155.04 29.3781C154.361 29.6785 153.777 30.0938 153.288 30.624C152.799 31.1542 152.419 31.7687 152.147 32.4667C151.876 33.1652 151.74 33.9119 151.74 34.7072V34.76C151.74 35.5553 151.876 36.307 152.147 37.0135C152.419 37.7209 152.794 38.3393 153.275 38.8695C153.754 39.3997 154.334 39.8199 155.013 40.1293C155.692 40.4389 156.439 40.5931 157.254 40.5931C158.341 40.5931 159.259 40.3988 160.011 40.0098C160.763 39.6214 161.51 39.091 162.252 38.4189L164.915 41.044C164.426 41.5568 163.918 42.0165 163.393 42.4226C162.868 42.8295 162.293 43.1784 161.668 43.4703C161.044 43.7616 160.359 43.9831 159.618 44.1329C158.874 44.283 158.042 44.3585 157.119 44.3585Z" fill="white" fill-opacity="0.8"/>
<path d="M169.838 25.4805H184.154V29.1131H173.967V32.8782H182.932V36.5106H173.967V40.4084H184.29V44.0407H169.838V25.4805Z" fill="white" fill-opacity="0.8"/>
</svg>
